# xmcd
#
# Track frame offsets:
#	150
#	59503
#	142246
#	226580
#
# Disc length: 4714 seconds
# Revision: 0
# Processed by: cddbd v1.5.2PL0 Copyright (c) Steve Scherf et al.
# Submitted via: dBpowerAMP V12.0
#
DISCID=33126804
DTITLE=Ingeborg Bachmann - SPUREN 12 CD1
DYEAR=2006
DGENRE=Speech
TTITLE0=01
TTITLE1=02
TTITLE2=03
TTITLE3=04
EXTD=
EXTT0=
EXTT1=
EXTT2=
EXTT3=
PLAYORDER=
